<svg width="65" height="65" viewBox="0 0 65 65" fill="none" xmlns="http://www.w3.org/2000/svg">
<path d="M24.375 23.8062V41.1938C24.375 42.4938 24.9437 43.4417 26.0812 44.0375C27.2187 44.6333 28.3292 44.5792 29.4125 43.875L42.9 35.2625C43.9292 34.6667 44.4438 33.7458 44.4438 32.5C44.4438 31.2542 43.9292 30.3333 42.9 29.7375L29.4125 21.125C28.3292 20.4208 27.2187 20.3667 26.0812 20.9625C24.9437 21.5583 24.375 22.5062 24.375 23.8062ZM32.5 65C28.0042 65 23.7792 64.1463 19.825 62.439C15.8708 60.7338 12.4313 58.4188 9.50625 55.4938C6.58125 52.5688 4.26617 49.1292 2.561 45.175C0.853667 41.2208 0 36.9958 0 32.5C0 28.0042 0.853667 23.7792 2.561 19.825C4.26617 15.8708 6.58125 12.4313 9.50625 9.50625C12.4313 6.58125 15.8708 4.26508 19.825 2.55775C23.7792 0.852583 28.0042 0 32.5 0C36.9958 0 41.2208 0.852583 45.175 2.55775C49.1292 4.26508 52.5688 6.58125 55.4938 9.50625C58.4188 12.4313 60.7338 15.8708 62.439 19.825C64.1463 23.7792 65 28.0042 65 32.5C65 36.9958 64.1463 41.2208 62.439 45.175C60.7338 49.1292 58.4188 52.5688 55.4938 55.4938C52.5688 58.4188 49.1292 60.7338 45.175 62.439C41.2208 64.1463 36.9958 65 32.5 65ZM32.5 58.5C39.7042 58.5 45.8391 55.9683 50.9048 50.9048C55.9683 45.8391 58.5 39.7042 58.5 32.5C58.5 25.2958 55.9683 19.1609 50.9048 14.0952C45.8391 9.03175 39.7042 6.5 32.5 6.5C25.2958 6.5 19.162 9.03175 14.0985 14.0952C9.03283 19.1609 6.5 25.2958 6.5 32.5C6.5 39.7042 9.03283 45.8391 14.0985 50.9048C19.162 55.9683 25.2958 58.5 32.5 58.5Z" fill="white"/>
</svg>
